<mxfile host="app.diagrams.net" modified="2024-05-02T13:58:18.842Z" agent="Mozilla/5.0 (Windows NT 10.0; Win64; x64) AppleWebKit/537.36 (KHTML, like Gecko) Chrome/124.0.0.0 Safari/537.36" version="24.3.1" etag="6aOjULwJk2HhBHG8fPtY" type="github">
  <diagram name="Page-1" id="sGL5J6LWgoY_dtc6VEmH">
    <mxGraphModel>
      <root>
        <mxCell id="0" />
        <mxCell id="1" parent="0" />
      </root>
    </mxGraphModel>
  </diagram>
</mxfile>
